# xmcd
#
# Track frame offsets:
#	150
#	12180
#	25970
#	42942
#	61325
#	74545
#	84961
#	97445
#	114034
#	126754
#	138860
#	151683
#	166861
#	183942
#	193799
#	206280
#	223172
#
# Disc length: 3120 seconds
#
# Revision: 1
# Processed by: cddbd v1.5.2PL0 Copyright (c) Steve Scherf et al.
# Submitted via: EZCDAudioConverter 1.3.4.1
#
DISCID=e20c2e11
DTITLE=Wendy and Bonnie - Genesis 1/2
DYEAR=1969
DGENRE=
TTITLE0=Let Yourself Go Another Time
TTITLE1=The Paisley Window Pane
TTITLE2=I Realized You
TTITLE3=By The Sea
TTITLE4=You Keep Hanging Up On My Mind
TTITLE5=It's What's Really Happening
TTITLE6=Five O'Clock In The Morning
TTITLE7=Endless Pathway
TTITLE8=Children Laughing
TTITLE9=The Winter Is Cold
TTITLE10=Let Yourself Go Another Time [Alternate]
TTITLE11=The Paisley Window Pane [Alternate]
TTITLE12=I Realized You [Alternate]
TTITLE13=It's What's Really Happening [Alternate]
TTITLE14=Five O'Clock In The Morning [Alternate]
TTITLE15=Endless Pathway [Alternate]
TTITLE16=The Winter Is Cold [Alternate]
EXTD=
EXTT0=
EXTT1=
EXTT2=
EXTT3=
EXTT4=
EXTT5=
EXTT6=
EXTT7=
EXTT8=
EXTT9=
EXTT10=
EXTT11=
EXTT12=
EXTT13=
EXTT14=
EXTT15=
EXTT16=
PLAYORDER=
